<svg width="128" height="58" viewBox="0 0 128 58" fill="none" xmlns="http://www.w3.org/2000/svg">
<path d="M50.7636 55.9791H7.46299C5.74111 55.9791 4.27298 54.7375 3.99205 53.0383L2.7233 45.8608H55.5033L54.2346 53.0383C53.9491 54.733 52.481 55.9791 50.7636 55.9791Z" fill="#161D21"/>
<path d="M51.8783 49.1278H6.3483C4.34548 49.1278 2.7233 47.5056 2.7233 45.5028V7.01437C2.7233 5.01156 4.34548 3.38937 6.3483 3.38937H51.8783C53.8811 3.38937 55.5033 5.01156 55.5033 7.01437V45.5073C55.5033 47.5056 53.8811 49.1278 51.8783 49.1278Z" fill="url(#paint0_linear_3:388)"/>
<path d="M18.8999 25.2481H8.91751C7.41767 25.2481 6.19876 24.0292 6.19876 22.5294V8.50516C6.19876 7.00531 7.41767 5.78641 8.91751 5.78641H18.8999C20.3997 5.78641 21.6186 7.00531 21.6186 8.50516V22.5294C21.6186 24.0292 20.3997 25.2481 18.8999 25.2481Z" fill="#E53A35"/>
<g opacity="0.2">
<path opacity="0.2" d="M51.7333 4.93C53.0338 4.93 54.0896 5.98578 54.0896 7.28625V45.4892C54.0896 45.5753 54.0805 45.675 54.0669 45.8064C54.0533 45.8925 54.0533 45.9831 54.0578 46.0692L52.8435 52.9386C52.6758 53.9581 51.8013 54.6967 50.7681 54.6967H7.46299C6.42986 54.6967 5.55533 53.9581 5.38314 52.925L4.16877 46.0692C4.1733 45.9831 4.16877 45.8925 4.1597 45.8064C4.14158 45.6795 4.13705 45.5798 4.13705 45.4892V7.28625C4.13705 5.98578 5.19283 4.93 6.4933 4.93H51.7333ZM51.7333 3.51625H6.4933C4.41345 3.51625 2.7233 5.20188 2.7233 7.28625V45.4892C2.7233 45.6614 2.73689 45.8245 2.75955 45.9922H2.7233L3.99205 53.1697C4.27298 54.8644 5.74111 56.1105 7.46299 56.1105H50.7636C52.4855 56.1105 53.9536 54.8689 54.2346 53.1697L55.5033 45.9922H55.4671C55.4897 45.8291 55.5033 45.6614 55.5033 45.4892V7.28625C55.5033 5.20188 53.8131 3.51625 51.7333 3.51625Z" fill="#EEEEEE"/>
</g>
<path d="M6.0719 43.1919V32.2897C6.0719 30.7899 7.29081 29.5709 8.79065 29.5709H31.5239C33.0238 29.5709 34.2427 30.7899 34.2427 32.2897V43.1873C34.2427 44.6872 33.0238 45.9061 31.5239 45.9061H8.79065C7.28627 45.9106 6.0719 44.6917 6.0719 43.1919Z" fill="#E53A35"/>
<path d="M37.8495 42.9517V32.5299C37.8495 31.03 39.0685 29.8111 40.5683 29.8111H49.3091C50.8089 29.8111 52.0278 31.03 52.0278 32.5299V42.9517C52.0278 44.4516 50.8089 45.6705 49.3091 45.6705H40.5683C39.0685 45.6705 37.8495 44.4561 37.8495 42.9517Z" fill="#E53A35"/>
<path d="M49.7441 25.4792H27.4367C25.9369 25.4792 24.718 24.2603 24.718 22.7605V8.50516C24.718 7.00531 25.9369 5.78641 27.4367 5.78641H49.7441C51.2439 5.78641 52.4628 7.00531 52.4628 8.50516V22.765C52.4628 24.2648 51.2439 25.4792 49.7441 25.4792Z" fill="#E53A35"/>
<path d="M44.1253 31.1569H43.6949V31.6009H44.1253V31.1569Z" fill="#A16541"/>
<path d="M35.7833 47.8409H4.0419L4.45878 39.798C4.84846 34.732 9.17128 30.6131 14.2146 29.9833C15.8141 29.7839 17.6991 29.6616 19.9149 29.6616C22.1307 29.6616 24.0157 29.7839 25.6152 29.9833C30.6539 30.6131 34.9813 34.732 35.371 39.798L35.7833 47.8409Z" fill="url(#paint1_radial_3:388)"/>
<path d="M34.7955 48.1944C35.8716 48.1944 36.7439 47.322 36.7439 46.2459C36.7439 45.1698 35.8716 44.2975 34.7955 44.2975C33.7194 44.2975 32.847 45.1698 32.847 46.2459C32.847 47.322 33.7194 48.1944 34.7955 48.1944Z" fill="url(#paint2_radial_3:388)"/>
<path d="M35.371 41.2797C35.883 40.9263 36.2183 40.3417 36.2183 39.6711C36.2183 39.082 35.9555 38.5564 35.5386 38.1984C35.2395 37.9447 35.1308 37.5323 35.1988 37.1472C35.2169 37.0384 35.226 36.9297 35.226 36.8164C35.226 35.738 34.3514 34.868 33.2775 34.868C33.2685 34.868 33.2639 34.868 33.2549 34.8725C33.273 34.7592 33.2911 34.6459 33.2911 34.5281C33.2911 33.4497 32.4166 32.5797 31.3427 32.5797C31.3427 31.5013 30.4681 30.6313 29.3942 30.6313C29.3127 30.6313 29.2356 30.6358 29.1586 30.6448C28.7735 30.6947 28.4064 30.4998 28.1617 30.2008C27.8083 29.7658 27.2691 29.4848 26.6619 29.4848C26.3855 29.4848 26.1272 29.5438 25.8916 29.648C25.6016 29.7794 25.2481 29.725 25.0125 29.512C24.6681 29.2039 24.2195 29.0136 23.7166 29.0136C23.3813 29.0136 23.0686 29.0997 22.7967 29.2492C22.5113 29.4078 22.1397 29.3716 21.9086 29.1405C21.5597 28.7916 21.0794 28.5741 20.5447 28.5741C20.1505 28.5741 19.788 28.6919 19.4799 28.8958C19.1853 29.0906 18.8183 29.0906 18.5238 28.8958C18.2202 28.6919 17.8531 28.5741 17.4589 28.5741C16.888 28.5741 16.376 28.8188 16.0225 29.2084C15.7778 29.4803 15.3791 29.5619 15.0302 29.4531C14.8535 29.3988 14.6631 29.367 14.4638 29.367C14.0152 29.367 13.6028 29.5211 13.2766 29.7748C12.9231 30.0513 12.4836 30.2008 12.0441 30.1056C11.9172 30.0784 11.7813 30.0648 11.6453 30.0648C10.6938 30.0648 9.90533 30.7445 9.73314 31.6463C9.65158 31.6372 9.57002 31.6236 9.48845 31.6236C8.47345 31.6236 7.6533 32.3984 7.55814 33.3863C7.55361 33.3863 7.54455 33.3863 7.54002 33.3863C6.46158 33.3863 5.59158 34.2608 5.59158 35.3347C5.59158 35.3528 5.59158 35.3664 5.59158 35.3845C5.60064 35.738 5.42845 36.0597 5.13392 36.2545C4.6083 36.6034 4.25939 37.197 4.25939 37.8722C4.25939 38.2573 4.3772 38.6153 4.56752 38.9189C4.24127 39.2678 4.03736 39.7345 4.03736 40.2511C4.03736 40.822 4.28658 41.3341 4.6808 41.692C4.28658 42.05 4.03283 42.562 4.03283 43.1375C4.03283 43.7764 4.34549 44.3383 4.82127 44.6963C4.25939 45.1177 3.92408 45.8291 4.06455 46.613C4.20049 47.3742 4.80314 47.9995 5.56439 48.1581C6.82408 48.4209 7.9297 47.4648 7.9297 46.2505C7.9297 45.6116 7.61705 45.0497 7.14127 44.6917C7.61705 44.3383 7.9297 43.7719 7.9297 43.133C7.9297 42.562 7.68049 42.05 7.28627 41.692C7.68049 41.3341 7.93424 40.822 7.93424 40.2466C7.93424 39.8614 7.81642 39.5034 7.62611 39.1998C7.95236 38.8509 8.15627 38.3842 8.15627 37.8677C8.15627 37.6366 8.11095 37.4145 8.03392 37.2106C8.80877 37.0067 9.38877 36.3406 9.47033 35.5205C9.47486 35.5205 9.48392 35.5205 9.48845 35.5205C10.44 35.5205 11.2285 34.8408 11.4006 33.9391C11.4822 33.9481 11.5638 33.9617 11.6453 33.9617C12.393 33.9617 13.0364 33.5358 13.3627 32.9195C13.6753 33.137 14.056 33.2639 14.4638 33.2639C15.2794 33.2639 15.9727 32.7655 16.2672 32.0541C16.598 32.3123 17.0103 32.4709 17.4589 32.4709C18.0888 32.4709 18.6461 32.1673 18.9995 31.7006C19.3575 32.1628 19.9103 32.4709 20.5402 32.4709C21.1111 32.4709 21.6186 32.2217 21.9766 31.832C22.2983 32.4709 22.9508 32.9105 23.712 32.9105C24.2014 32.9105 24.6455 32.7247 24.9853 32.4256C25.3252 32.9966 25.9414 33.3863 26.6574 33.3863C26.9745 33.3863 27.2736 33.3047 27.5364 33.1688C27.7856 33.9572 28.5152 34.5327 29.3852 34.5327C29.3852 35.6111 30.2597 36.4811 31.3336 36.4811C31.3427 36.4811 31.3472 36.4811 31.3563 36.4766C31.3381 36.5898 31.32 36.7031 31.32 36.8209C31.32 37.6638 31.8592 38.3752 32.6069 38.647C32.4211 38.9461 32.3078 39.295 32.3078 39.6711C32.3078 40.5456 32.8878 41.2752 33.6763 41.5244C33.0781 41.9322 32.7202 42.6663 32.8561 43.4728C32.9875 44.2431 33.5947 44.8775 34.356 45.0361C35.6156 45.2989 36.7258 44.3428 36.7258 43.133C36.7439 42.2584 36.1639 41.5289 35.371 41.2797Z" fill="url(#paint3_radial_3:388)"/>
<path d="M19.6384 35.8241C20.9348 35.8241 21.9856 34.9639 21.9856 33.9028C21.9856 32.8417 20.9348 31.9816 19.6384 31.9816C18.3421 31.9816 17.2913 32.8417 17.2913 33.9028C17.2913 34.9639 18.3421 35.8241 19.6384 35.8241Z" fill="#B0BEC5"/>
<path d="M19.6384 35.0175C20.9348 35.0175 21.9856 34.1573 21.9856 33.0963C21.9856 32.0352 20.9348 31.175 19.6384 31.175C18.3421 31.175 17.2913 32.0352 17.2913 33.0963C17.2913 34.1573 18.3421 35.0175 19.6384 35.0175Z" fill="url(#paint4_radial_3:388)"/>
<path opacity="0.2" d="M11.3204 41.7839C11.3788 41.4182 10.8211 41.0251 10.0748 40.906C9.32848 40.7869 8.67615 40.9868 8.61778 41.3526C8.5594 41.7183 9.1171 42.1114 9.86342 42.2305C10.6097 42.3496 11.2621 42.1497 11.3204 41.7839Z" fill="#B0BEC5"/>
<path opacity="0.2" d="M14.2721 44.1591C14.3304 43.7934 13.905 43.4214 13.3217 43.3284C12.7385 43.2353 12.2184 43.4563 12.16 43.8221C12.1017 44.1878 12.5271 44.5598 13.1104 44.6528C13.6936 44.7459 14.2137 44.5249 14.2721 44.1591Z" fill="#B0BEC5"/>
<path opacity="0.2" d="M7.03077 40.5068C7.66531 40.0963 8.01661 39.5114 7.81542 39.2004C7.61424 38.8895 6.93674 38.9702 6.3022 39.3807C5.66766 39.7912 5.31636 40.3761 5.51754 40.6871C5.71873 40.9981 6.39622 40.9174 7.03077 40.5068Z" fill="#B0BEC5"/>
<path opacity="0.2" d="M7.63492 44.4915C7.79692 44.1584 7.4685 43.6648 6.90136 43.389C6.33423 43.1131 5.74314 43.1595 5.58114 43.4926C5.41914 43.8257 5.74757 44.3193 6.3147 44.5951C6.88184 44.871 7.47292 44.8246 7.63492 44.4915Z" fill="#90A4AE"/>
<path opacity="0.2" d="M10.305 46.3515C10.8506 46.0353 11.1424 45.5191 10.9566 45.1987C10.7709 44.8782 10.178 44.8748 9.63236 45.1911C9.08673 45.5074 8.79498 46.0235 8.98073 46.344C9.16647 46.6644 9.75937 46.6678 10.305 46.3515Z" fill="#90A4AE"/>
<path opacity="0.2" d="M32.8851 42.9245C33.6314 42.8054 34.1891 42.4123 34.1307 42.0466C34.0724 41.6808 33.42 41.4809 32.6737 41.6C31.9274 41.7191 31.3697 42.1122 31.4281 42.4779C31.4864 42.8437 32.1388 43.0436 32.8851 42.9245Z" fill="#B0BEC5"/>
<path opacity="0.2" d="M27.4298 44.6688C28.1761 44.5496 28.7338 44.1566 28.6754 43.7908C28.617 43.4251 27.9647 43.2252 27.2184 43.3443C26.4721 43.4634 25.9144 43.8564 25.9728 44.2222C26.0311 44.5879 26.6835 44.7879 27.4298 44.6688Z" fill="#B0BEC5"/>
<path opacity="0.2" d="M34.3181 39.283C34.5193 38.972 34.168 38.3871 33.5335 37.9766C32.8989 37.5661 32.2214 37.4854 32.0202 37.7963C31.819 38.1073 32.1703 38.6922 32.8049 39.1027C33.4394 39.5132 34.1169 39.594 34.3181 39.283Z" fill="#B0BEC5"/>
<path opacity="0.2" d="M32.4165 46.3476C32.6022 46.0271 32.3105 45.511 31.7648 45.1947C31.2192 44.8784 30.6263 44.8818 30.4406 45.2023C30.2548 45.5227 30.5466 46.0389 31.0922 46.3551C31.6378 46.6714 32.2307 46.668 32.4165 46.3476Z" fill="#90A4AE"/>
<path opacity="0.2" d="M18.6829 46.0085C18.7598 45.6462 18.322 45.2464 17.7051 45.1156C17.0882 44.9847 16.5258 45.1723 16.4489 45.5346C16.3721 45.8969 16.8099 46.2967 17.4268 46.4276C18.0437 46.5584 18.6061 46.3708 18.6829 46.0085Z" fill="#B0BEC5"/>
<path opacity="0.2" d="M20.7909 43.6732C21.633 43.6275 22.2994 43.2906 22.2793 42.9208C22.2592 42.551 21.5603 42.2882 20.7182 42.3339C19.8761 42.3796 19.2098 42.7165 19.2298 43.0863C19.2499 43.4561 19.9488 43.7189 20.7909 43.6732Z" fill="#B0BEC5"/>
<path opacity="0.2" d="M17.627 42.6512C18.205 42.399 18.5535 41.9193 18.4053 41.5798C18.2572 41.2404 17.6685 41.1697 17.0905 41.422C16.5126 41.6742 16.1641 42.1539 16.3123 42.4933C16.4604 42.8328 17.0491 42.9035 17.627 42.6512Z" fill="#B0BEC5"/>
<path opacity="0.2" d="M15.0457 40.6662C15.1827 40.3221 14.8188 39.854 14.2329 39.6208C13.647 39.3875 13.0609 39.4774 12.9239 39.8215C12.7869 40.1656 13.1508 40.6337 13.7368 40.8669C14.3227 41.1002 14.9087 41.0103 15.0457 40.6662Z" fill="#B0BEC5"/>
<path opacity="0.2" d="M12.1945 37.9277C12.3054 37.3068 12.0998 36.7508 11.7352 36.6856C11.3706 36.6205 10.9851 37.0709 10.8741 37.6917C10.7632 38.3125 10.9688 38.8686 11.3334 38.9338C11.698 38.9989 12.0835 38.5485 12.1945 37.9277Z" fill="#D0D8DC"/>
<path opacity="0.2" d="M19.0882 38.8816C19.1441 38.5155 18.6839 38.1415 18.0605 38.0464C17.437 37.9513 16.8864 38.1711 16.8305 38.5372C16.7746 38.9034 17.2348 39.2773 17.8582 39.3724C18.4817 39.4675 19.0324 39.2478 19.0882 38.8816Z" fill="#D0D8DC"/>
<path opacity="0.2" d="M29.7412 37.531C30.2797 37.2028 30.56 36.6804 30.3673 36.3641C30.1745 36.0479 29.5817 36.0575 29.0432 36.3857C28.5047 36.7139 28.2244 37.2363 28.4172 37.5526C28.6099 37.8688 29.2027 37.8592 29.7412 37.531Z" fill="#B0BEC5"/>
<path opacity="0.2" d="M9.10223 36.9772C9.23923 36.6331 8.8753 36.165 8.28937 35.9317C7.70345 35.6985 7.1174 35.7883 6.98039 36.1324C6.84339 36.4766 7.20732 36.9446 7.79324 37.1779C8.37917 37.4112 8.96522 37.3213 9.10223 36.9772Z" fill="#B0BEC5"/>
<path opacity="0.2" d="M23.948 46.3653C24.5085 46.0761 24.8252 45.5749 24.6553 45.2457C24.4855 44.9166 23.8935 44.8841 23.3331 45.1733C22.7726 45.4624 22.456 45.9637 22.6258 46.2928C22.7956 46.622 23.3876 46.6544 23.948 46.3653Z" fill="#90A4AE"/>
<path opacity="0.2" d="M24.5629 38.9008C25.2823 38.6694 25.7736 38.1959 25.6601 37.8433C25.5467 37.4908 24.8715 37.3926 24.1521 37.6241C23.4327 37.8556 22.9415 38.3291 23.0549 38.6816C23.1683 39.0342 23.8435 39.1323 24.5629 38.9008Z" fill="#D0D8DC"/>
<path opacity="0.2" d="M29.5619 33.8715C29.7376 33.5454 29.3407 32.9905 28.6754 32.6319C28.0101 32.2734 27.3284 32.2471 27.1526 32.5731C26.9769 32.8991 27.3738 33.4541 28.0391 33.8126C28.7044 34.1712 29.3862 34.1975 29.5619 33.8715Z" fill="#D0D8DC"/>
<path opacity="0.2" d="M10.6456 34.4208C11.0817 34.1187 11.2643 33.6269 11.0534 33.3225C10.8424 33.018 10.3179 33.0162 9.8818 33.3183C9.44569 33.6204 9.26316 34.1122 9.47408 34.4166C9.68501 34.7211 10.2095 34.723 10.6456 34.4208Z" fill="#D0D8DC"/>
<path opacity="0.2" d="M14.9961 37.5081C15.4322 37.206 15.6148 36.7142 15.4038 36.4098C15.1929 36.1053 14.6684 36.1034 14.2323 36.4056C13.7962 36.7077 13.6136 37.1995 13.8246 37.5039C14.0355 37.8084 14.56 37.8102 14.9961 37.5081Z" fill="#D0D8DC"/>
<path opacity="0.2" d="M26.0606 35.5678C26.4967 35.2656 26.6792 34.7739 26.4683 34.4694C26.2574 34.165 25.7328 34.1631 25.2967 34.4652C24.8606 34.7674 24.6781 35.2591 24.889 35.5636C25.1 35.868 25.6245 35.8699 26.0606 35.5678Z" fill="#D0D8DC"/>
<path opacity="0.2" d="M25.2504 31.5279C25.3871 31.1837 25.0983 30.7459 24.6052 30.55C24.1122 30.3541 23.6017 30.4744 23.4649 30.8186C23.3282 31.1628 23.617 31.6006 24.1101 31.7964C24.6031 31.9923 25.1136 31.8721 25.2504 31.5279Z" fill="#D0D8DC"/>
<path opacity="0.2" d="M13.8108 33.9723C14.314 33.8044 14.627 33.3835 14.5098 33.0322C14.3925 32.6808 13.8895 32.5321 13.3863 32.7C12.883 32.868 12.57 33.2889 12.6873 33.6402C12.8045 33.9916 13.3075 34.1403 13.8108 33.9723Z" fill="#D0D8DC"/>
<path opacity="0.2" d="M16.5407 30.7866C16.5788 30.4182 16.1819 30.0753 15.6542 30.0206C15.1265 29.966 14.6677 30.2203 14.6296 30.5887C14.5914 30.9572 14.9883 31.3001 15.5161 31.3548C16.0438 31.4094 16.5025 31.155 16.5407 30.7866Z" fill="#D0D8DC"/>
<path opacity="0.2" d="M29.3197 41.008C30.0384 40.7743 30.5283 40.2993 30.4137 39.9471C30.2992 39.5949 29.6237 39.4988 28.905 39.7324C28.1863 39.9661 27.6964 40.4411 27.811 40.7933C27.9255 41.1456 28.601 41.2417 29.3197 41.008Z" fill="#B0BEC5"/>
<path opacity="0.2" d="M25.9292 42.2706C26.1011 41.9426 25.6977 41.3923 25.0282 41.0417C24.3588 40.691 23.6768 40.6727 23.5049 41.0007C23.333 41.3288 23.7364 41.8791 24.4059 42.2297C25.0753 42.5804 25.7574 42.5987 25.9292 42.2706Z" fill="#B0BEC5"/>
<path opacity="0.1" d="M16.7959 34.6235C17.5146 34.3899 18.0044 33.9149 17.8899 33.5626C17.7754 33.2104 17.0999 33.1143 16.3812 33.348C15.6624 33.5817 15.1726 34.0567 15.2871 34.4089C15.4017 34.7611 16.0771 34.8572 16.7959 34.6235Z" fill="#D0D8DC"/>
<path d="M20.6687 10.2723C21.0448 11.2375 21.0448 13.2992 21.0448 13.2992C21.0448 13.2992 17.2929 14.2825 13.8084 14.2825C10.3918 14.2825 6.59915 13.2992 6.59915 13.2992C6.59915 13.2992 6.59915 11.3372 6.94806 10.2723C7.64587 8.15172 9.81181 6.26219 13.8084 6.26219C17.8049 6.26219 19.8531 8.18344 20.6687 10.2723Z" fill="url(#paint5_radial_3:388)"/>
<path d="M21.0432 13.0002C21.0432 15.2159 19.2307 16.7113 13.8067 16.7113C8.38284 16.7113 6.57034 15.2159 6.57034 13.0002C6.57034 10.7844 9.81019 8.99001 13.8067 8.99001C17.8033 8.99001 21.0432 10.7844 21.0432 13.0002Z" fill="url(#paint6_linear_3:388)"/>
<path d="M19.1536 12.0758L20.0417 11.7314L19.7109 10.7889L18.9905 11.8311L19.1536 12.0758Z" fill="#568B3E"/>
<path d="M18.3289 11.9172L18.4241 11.1106L17.9891 10.6983L17.8123 11.9308L18.3289 11.9172Z" fill="#568B3E"/>
<path d="M13.5937 11.3009L13.6934 10.4899L13.2584 10.0775L13.2448 10.6983L13.2358 11.3145L13.5937 11.3009Z" fill="#568B3E"/>
<path d="M12.1755 11.2103L12.5108 11.3145L12.5833 10.5487L12.0894 10.363L12.1755 11.2103Z" fill="#568B3E"/>
<path d="M9.66969 11.5638L9.8011 10.9158L8.98547 10.6983L9.10329 11.8402L9.66969 11.5638Z" fill="#568B3E"/>
<path d="M18.8183 10.3811C18.3063 10.0186 17.8984 10.5488 18.0027 10.8025C18.0661 10.9611 18.2156 11.0608 18.1703 11.2466C18.125 11.4323 17.9755 11.4595 17.7081 11.4414C17.4091 11.4233 17.246 11.1922 17.2052 10.9883C17.0239 10.0775 16.462 9.87813 16.0406 10.0866C15.6963 10.2588 16.0769 10.585 15.7642 10.7119C15.4017 10.8569 15.1933 10.7708 15.0211 10.5669C14.8897 10.4128 15.0619 10.1545 14.8036 9.83735C14.3777 9.30719 13.3445 9.62891 13.2403 9.99594C13.1361 10.363 13.4805 10.3811 13.4941 10.6983C13.5077 11.0155 12.905 11.1877 12.6014 11.0608C11.9761 10.8025 12.6331 10.8297 12.5788 10.4264C12.5017 9.8736 11.7133 10.0458 11.532 10.1545C11.0517 10.44 11.2285 10.6847 11.1106 10.8614C10.8297 11.2692 10.4083 11.0472 10.1908 10.9203C9.97329 10.7934 9.92798 10.2542 9.25736 10.4581C8.7997 10.5986 8.99001 10.9248 9.17579 11.1288C9.26189 11.2239 9.23017 11.3734 9.11236 11.4278C8.67283 11.6227 8.33298 11.3281 8.09283 11.1922C7.80736 11.0336 7.38595 11.0563 7.18658 11.2692C6.95095 11.5275 7.68501 11.6725 7.39501 11.9308C7.15486 12.1438 6.83314 11.8175 6.7697 11.7269C6.39814 11.2284 5.78189 12.3023 6.28033 12.4202C6.77423 12.538 6.67908 12.9775 6.58845 13.127C6.4072 13.4306 6.05829 12.7056 6.17158 13.9381C6.24861 14.8036 6.86939 15.2658 7.32251 15.5694C7.92517 15.9772 19.0539 16.5708 20.5945 15.6373C20.9797 15.4017 22.04 13.9155 21.7636 13.3717C21.3513 12.5742 21.2969 13.5938 21.0341 13.2947C20.4631 12.6422 21.3377 12.5742 21.1927 12.1845C21.0386 11.7631 20.9072 12.112 20.7531 11.9534C20.5311 11.7223 20.6172 11.5864 20.726 11.4278C20.8392 11.2602 20.2456 10.7209 19.8514 10.7209C19.4617 10.7209 19.9239 11.1967 19.6747 11.3236C19.4255 11.4505 19.2624 11.3372 18.995 11.0789C18.7277 10.8342 19.1219 10.5941 18.8183 10.3811Z" fill="url(#paint7_linear_3:388)"/>
<path d="M20.6687 15.7189C21.0448 16.6841 21.0448 18.7458 21.0448 18.7458C21.0448 18.7458 17.2929 19.7291 13.8084 19.7291C10.3918 19.7291 6.59915 18.7458 6.59915 18.7458C6.59915 18.7458 6.59915 16.7838 6.94806 15.7189C7.64587 13.5983 9.81181 11.7088 13.8084 11.7088C17.8049 11.7088 19.8531 13.63 20.6687 15.7189Z" fill="url(#paint8_radial_3:388)"/>
<path d="M21.0432 18.4467C21.0432 20.6625 19.2307 22.1578 13.8067 22.1578C8.38284 22.1578 6.57034 20.6625 6.57034 18.4467C6.57034 16.231 9.81019 14.4366 13.8067 14.4366C17.8033 14.4366 21.0432 16.231 21.0432 18.4467Z" fill="url(#paint9_linear_3:388)"/>
<path d="M11.6344 12.9714C12.0084 12.9016 12.2817 12.6856 12.245 12.4888C12.2083 12.292 11.8754 12.189 11.5015 12.2587C11.1276 12.3285 10.8542 12.5446 10.8909 12.7414C10.9276 12.9382 11.2605 13.0412 11.6344 12.9714Z" fill="#FDD836"/>
<path d="M13.6488 12.5954C14.0281 12.5665 14.3232 12.3812 14.308 12.1816C14.2927 11.982 13.9729 11.8436 13.5936 11.8725C13.2143 11.9015 12.9192 12.0868 12.9344 12.2864C12.9497 12.486 13.2695 12.6244 13.6488 12.5954Z" fill="#FDD836"/>
<path d="M13.0508 13.2977C13.4301 13.2687 13.7252 13.0834 13.71 12.8838C13.6947 12.6842 13.3749 12.5458 12.9956 12.5748C12.6163 12.6037 12.3212 12.789 12.3365 12.9886C12.3517 13.1883 12.6715 13.3266 13.0508 13.2977Z" fill="#F9BF2C"/>
<path d="M15.7564 13.0961C15.7615 12.8959 15.4573 12.7259 15.077 12.7162C14.6968 12.7065 14.3844 12.861 14.3793 13.0611C14.3742 13.2612 14.6784 13.4313 15.0586 13.441C15.4389 13.4506 15.7513 13.2962 15.7564 13.0961Z" fill="#F9BF2C"/>
<path d="M13.9419 13.7656C14.3218 13.7464 14.6215 13.5688 14.6114 13.3688C14.6014 13.1689 14.2852 13.0224 13.9053 13.0415C13.5254 13.0607 13.2256 13.2383 13.2357 13.4383C13.2458 13.6382 13.562 13.7848 13.9419 13.7656Z" fill="#FDD836"/>
<path d="M16.4933 12.4716C16.5222 12.2735 16.2405 12.0684 15.8641 12.0134C15.4877 11.9585 15.1591 12.0746 15.1302 12.2727C15.1013 12.4708 15.383 12.6759 15.7594 12.7308C16.1358 12.7857 16.4643 12.6697 16.4933 12.4716Z" fill="#FDD836"/>
<path d="M10.6528 13.7332C10.9988 13.5752 11.2118 13.2994 11.1287 13.1173C11.0455 12.9352 10.6976 12.9157 10.3516 13.0738C10.0056 13.2318 9.7925 13.5076 9.87569 13.6897C9.95887 13.8718 10.3068 13.8913 10.6528 13.7332Z" fill="#F9BF2C"/>
<path d="M15.1299 14.2916C15.5103 14.2916 15.8186 14.1293 15.8186 13.9291C15.8186 13.7289 15.5103 13.5666 15.1299 13.5666C14.7495 13.5666 14.4411 13.7289 14.4411 13.9291C14.4411 14.1293 14.7495 14.2916 15.1299 14.2916Z" fill="#F9BF2C"/>
<path d="M17.1856 13.17C17.1977 12.9702 16.8998 12.7895 16.52 12.7664C16.1403 12.7434 15.8227 12.8867 15.8106 13.0865C15.7984 13.2864 16.0964 13.4671 16.4761 13.4901C16.8558 13.5132 17.1735 13.3699 17.1856 13.17Z" fill="#F9BF2C"/>
<path d="M10.3421 14.6353C10.7026 14.5138 10.9429 14.2615 10.879 14.0718C10.815 13.8821 10.471 13.8268 10.1105 13.9483C9.75009 14.0698 9.50972 14.322 9.57367 14.5118C9.63761 14.7015 9.98166 14.7568 10.3421 14.6353Z" fill="#F9A823"/>
<path d="M17.4896 14.0414C17.5218 13.8438 17.2436 13.6339 16.8681 13.5727C16.4927 13.5115 16.1622 13.622 16.13 13.8196C16.0978 14.0172 16.376 14.227 16.7514 14.2883C17.1269 14.3495 17.4573 14.239 17.4896 14.0414Z" fill="#F9A823"/>
<path d="M19.0592 14.704C19.1374 14.5197 18.9169 14.2498 18.5667 14.1012C18.2165 13.9527 17.8692 13.9816 17.791 14.1659C17.7128 14.3502 17.9333 14.6201 18.2835 14.7687C18.6337 14.9173 18.981 14.8883 19.0592 14.704Z" fill="#F9A823"/>
<path d="M18.5616 13.5044C18.6214 13.3133 18.3757 13.0663 18.0126 12.9526C17.6496 12.8389 17.3069 12.9016 17.247 13.0926C17.1872 13.2837 17.4329 13.5307 17.7959 13.6444C18.1589 13.7581 18.5017 13.6954 18.5616 13.5044Z" fill="#F9A823"/>
<path d="M9.40546 13.7154C9.73286 13.5217 9.91562 13.225 9.81368 13.0527C9.71174 12.8804 9.36369 12.8977 9.03629 13.0914C8.70889 13.2851 8.52612 13.5818 8.62807 13.7541C8.73001 13.9264 9.07806 13.9091 9.40546 13.7154Z" fill="#F9A823"/>
<path d="M8.95862 14.7811C9.28602 14.5874 9.46879 14.2907 9.36684 14.1184C9.2649 13.9461 8.91685 13.9634 8.58945 14.1571C8.26205 14.3508 8.07928 14.6475 8.18123 14.8198C8.28317 14.9921 8.63122 14.9748 8.95862 14.7811Z" fill="#F9A823"/>
<path d="M20.001 17.7534L19.9058 16.9423L20.3408 17.033L20.2275 18.1431L20.001 17.7534Z" fill="#568B3E"/>
<path d="M8.34659 17.6764L7.45847 17.3275L7.78925 16.3895L8.50972 17.4317L8.34659 17.6764Z" fill="#568B3E"/>
<path d="M9.17127 17.5178L9.07611 16.7067L9.50658 16.2944L9.68783 17.5314L9.17127 17.5178Z" fill="#568B3E"/>
<path d="M13.9019 16.897L13.8067 16.0905L14.2417 15.6781L14.2508 16.2944L14.2599 16.9106L13.9019 16.897Z" fill="#568B3E"/>
<path d="M15.3202 16.8064L14.9894 16.9106L14.9169 16.1448L15.4108 15.9591L15.3202 16.8064Z" fill="#568B3E"/>
<path d="M17.8305 17.1598L17.6945 16.5164L18.5102 16.2944L18.3969 17.4362L17.8305 17.1598Z" fill="#568B3E"/>
<path d="M8.67889 15.9772C9.19092 15.6147 9.59874 16.1448 9.49452 16.3986C9.43108 16.5572 9.28155 16.6569 9.32686 16.8427C9.37217 17.0239 9.52171 17.0556 9.78905 17.0375C10.0881 17.0194 10.2512 16.7883 10.292 16.5844C10.4733 15.6736 11.0351 15.4742 11.4565 15.6827C11.8009 15.8548 11.4203 16.1811 11.733 16.308C12.0955 16.453 12.3039 16.3669 12.4761 16.163C12.6075 16.0089 12.4353 15.7506 12.6936 15.4334C13.1195 14.9033 14.1526 15.225 14.2569 15.592C14.3611 15.9591 14.0167 15.9772 14.0031 16.2944C13.9895 16.6116 14.5922 16.7837 14.8958 16.6569C15.5211 16.3986 14.864 16.4258 14.9184 16.0225C14.9955 15.4697 15.7839 15.6419 15.9651 15.7506C16.4455 16.0361 16.2687 16.2808 16.3865 16.4575C16.6675 16.8653 17.0889 16.6433 17.3064 16.5164C17.5239 16.3895 17.5692 15.8503 18.2398 16.0542C18.6975 16.1947 18.5072 16.5209 18.3214 16.7248C18.2353 16.82 18.267 16.9695 18.3848 17.0239C18.8244 17.2187 19.1642 16.9242 19.4044 16.7883C19.6898 16.6297 20.1112 16.6523 20.3106 16.8653C20.5462 17.1236 19.8122 17.2686 20.1022 17.5269C20.3423 17.7398 20.6641 17.4136 20.7275 17.323C21.0991 16.8245 21.6564 17.7534 21.2169 18.0162C20.6595 18.3516 21.4344 18.3923 21.4344 18.5645C21.4389 20.0327 20.7773 20.7577 20.1747 21.1655C19.572 21.5733 8.44327 22.1669 6.90264 21.2334C6.24108 20.8302 5.8242 18.9587 6.25014 18.5872C6.67155 18.2156 6.16405 18.1748 6.30905 17.7806C6.46311 17.3592 6.59452 17.7081 6.74858 17.5495C6.97061 17.3184 6.88452 17.1825 6.77577 17.0239C6.66249 16.8562 7.25608 16.317 7.6503 16.317C8.03999 16.317 7.5778 16.7928 7.82702 16.9197C8.07624 17.0466 8.23936 16.9333 8.50671 16.675C8.76952 16.4303 8.37983 16.1902 8.67889 15.9772Z" fill="url(#paint10_linear_3:388)"/>
<path opacity="0.5" d="M20.1686 21.1745C19.5433 21.5778 8.77706 22.2666 6.89659 21.2425C6.10815 20.812 6.0719 18.9587 6.0719 18.9587L6.41174 18.3017C6.41174 18.3017 6.89206 19.3077 7.27721 19.4481C7.66237 19.5886 6.85127 17.178 6.85127 17.178C6.85127 17.178 8.23331 19.1627 8.78159 19.217C9.32987 19.2714 9.22565 17.0375 9.22565 17.0375C9.22565 17.0375 10.0322 20.0734 10.5035 20.1006C10.9792 20.1278 10.8841 16.7837 11.2783 16.4394C11.668 16.095 12.4202 20.5764 12.896 20.803C13.3717 21.025 13.2449 16.9152 13.7116 16.4394C14.2463 15.9002 13.8249 19.9556 14.6677 20.1822C15.4924 20.4087 15.3111 16.9287 16.2446 16.7112C16.7475 16.5934 16.0361 20.0689 16.7475 20.1822C17.9619 20.377 18.2021 17.4045 18.8591 17.1961C19.276 17.0647 18.8319 19.942 19.1083 20.155C19.4708 20.4314 21.4283 18.7141 21.4283 18.7141C21.4283 18.7141 21.4736 20.3317 20.1686 21.1745Z" fill="url(#paint11_linear_3:388)"/>
<path d="M20.6687 21.6684C21.0448 22.6336 21.0448 24.6953 21.0448 24.6953C21.0448 24.6953 17.2929 25.6786 13.8084 25.6786C10.3918 25.6786 6.59915 24.6953 6.59915 24.6953C6.59915 24.6953 6.59915 22.7333 6.94806 21.6684C7.64587 19.5478 9.81181 17.6583 13.8084 17.6583C17.8049 17.6583 19.8531 19.5795 20.6687 21.6684Z" fill="url(#paint12_radial_3:388)"/>
<path d="M21.0432 24.3917C21.0432 26.6075 19.0177 25.7783 13.5938 25.7783C8.16987 25.7783 6.57034 26.6075 6.57034 24.3917C6.57034 22.1759 9.81019 20.3816 13.8067 20.3816C17.8033 20.3816 21.0432 22.1805 21.0432 24.3917Z" fill="url(#paint13_linear_3:388)"/>
<path d="M19.1536 23.4764L20.0418 23.132L19.711 22.1941L18.9905 23.2317L19.1536 23.4764Z" fill="#568B3E"/>
<path d="M18.3289 23.3224L18.4241 22.5113L17.9891 22.0989L17.8124 23.3314L18.3289 23.3224Z" fill="#568B3E"/>
<path d="M13.5938 22.7016L13.6935 21.895L13.2585 21.4827L13.2449 22.0989L13.2358 22.7152L13.5938 22.7016Z" fill="#568B3E"/>
<path d="M12.1755 22.6109L12.5108 22.7152L12.5833 21.9494L12.0894 21.7636L12.1755 22.6109Z" fill="#568B3E"/>
<path d="M9.66972 22.9644L9.80113 22.3164L8.9855 22.0989L9.10332 23.2408L9.66972 22.9644Z" fill="#568B3E"/>
<path d="M18.8183 21.7817C18.3063 21.4192 17.8985 21.9494 18.0027 22.2031C18.0661 22.3617 18.2156 22.4614 18.1703 22.6472C18.125 22.8284 17.9755 22.8602 17.7081 22.842C17.4091 22.8239 17.246 22.5928 17.2052 22.3889C17.0239 21.4781 16.462 21.2788 16.0406 21.4872C15.6963 21.6594 16.0769 21.9856 15.7642 22.1125C15.4017 22.2575 15.1933 22.1714 15.0211 21.9675C14.8897 21.8134 15.0619 21.5552 14.8036 21.238C14.3777 20.7078 13.3445 21.0295 13.2403 21.3966C13.1361 21.7636 13.4805 21.7817 13.4941 22.0989C13.5077 22.4161 12.905 22.5883 12.6014 22.4614C11.9761 22.2031 12.6331 22.2303 12.5788 21.827C12.5017 21.2742 11.7133 21.4464 11.532 21.5552C11.0517 21.8406 11.2285 22.0853 11.1106 22.262C10.8297 22.6698 10.4083 22.4478 10.1908 22.3209C9.9733 22.1941 9.92799 21.6548 9.25736 21.8588C8.7997 21.9992 8.99002 22.3255 9.1758 22.5294C9.26189 22.6245 9.23017 22.7741 9.11236 22.8284C8.67283 23.0233 8.33299 22.7288 8.09283 22.5928C7.80736 22.4342 7.38595 22.4569 7.18658 22.6698C6.95095 22.9281 7.68502 23.0731 7.39502 23.3314C7.15486 23.5444 6.83314 23.2181 6.7697 23.1275C6.39814 22.6291 5.8408 23.558 6.28033 23.8208C6.83767 24.1561 6.06283 24.1969 6.06283 24.3691C6.0583 25.8372 6.71986 26.5622 7.32252 26.97C7.92517 27.3778 19.0539 27.9714 20.5946 27.038C21.2561 26.6347 21.673 24.7633 21.247 24.3917C20.8256 24.0202 21.3331 23.9794 21.1881 23.5852C21.0341 23.1638 20.9027 23.5127 20.7486 23.3541C20.5266 23.123 20.6127 22.987 20.7214 22.8284C20.8347 22.6608 20.2411 22.1216 19.8469 22.1216C19.4572 22.1216 19.9194 22.5973 19.6702 22.7242C19.421 22.8511 19.2578 22.7378 18.9905 22.4795C18.7277 22.2348 19.1219 21.9947 18.8183 21.7817Z" fill="url(#paint14_linear_3:388)"/>
<path opacity="0.5" d="M21.4736 26.1816L6.59753 26.0955L5.75925 23.3495C5.75925 23.3495 6.11722 23.4266 6.59753 23.6214C7.07784 23.8163 7.07331 24.4778 7.45846 24.6183C7.84362 24.7588 7.45846 22.7197 7.45846 22.7197C7.45846 22.7197 8.70909 25.1847 9.25737 25.2391C9.80565 25.2934 9.1894 22.5249 9.1894 22.5249C9.1894 22.5249 10.0322 24.5413 10.508 24.573C10.9838 24.6047 10.8116 22.2847 11.2058 21.9403C11.5955 21.5959 12.4247 25.0533 12.9005 25.2799C13.3763 25.5019 13.2132 22.5339 13.6799 22.0581C14.2146 21.5189 13.8294 24.4325 14.6722 24.6591C15.4969 24.8856 15.2114 22.3345 16.1449 22.117C16.6478 21.9992 16.0452 24.5458 16.7521 24.6591C17.9664 24.8539 18.3425 23.0958 18.9996 22.8874C19.4164 22.7559 18.8364 24.4189 19.1174 24.6319C19.4799 24.9083 21.2833 23.1683 21.2833 23.1683L21.4736 26.1816Z" fill="url(#paint15_linear_3:388)"/>
<path d="M11.3668 7.5115C11.771 7.48065 12.0856 7.2837 12.0694 7.0716C12.0532 6.8595 11.7124 6.71257 11.3082 6.74342C10.9039 6.77428 10.5894 6.97123 10.6055 7.18333C10.6217 7.39542 10.9626 7.54235 11.3668 7.5115Z" fill="#FDD836"/>
<path d="M12.3617 7.9601C12.741 7.93116 13.0361 7.74586 13.0209 7.54624C13.0057 7.34662 12.6858 7.20826 12.3066 7.23721C11.9273 7.26615 11.6322 7.45145 11.6474 7.65107C11.6626 7.85069 11.9825 7.98905 12.3617 7.9601Z" fill="#F9BF2C"/>
<path d="M14.3456 7.14324C14.351 6.93059 14.0268 6.74986 13.6215 6.73956C13.2162 6.72926 12.8833 6.8933 12.8779 7.10595C12.8725 7.3186 13.1967 7.49934 13.6019 7.50964C14.0072 7.51994 14.3402 7.3559 14.3456 7.14324Z" fill="#FDD836"/>
<path d="M16.4401 7.61589C16.4452 7.41575 16.141 7.24567 15.7607 7.23601C15.3805 7.22634 15.0681 7.38076 15.063 7.5809C15.0579 7.78105 15.362 7.95113 15.7423 7.96079C16.1226 7.97045 16.435 7.81604 16.4401 7.61589Z" fill="#F9BF2C"/>
<path d="M13.9421 8.28749C14.322 8.26831 14.6218 8.09069 14.6117 7.89074C14.6016 7.6908 14.2855 7.54426 13.9056 7.56343C13.5257 7.5826 13.2259 7.76023 13.236 7.96017C13.2461 8.16011 13.5622 8.30666 13.9421 8.28749Z" fill="#FDD836"/>
<path d="M10.6533 8.25476C10.9993 8.09671 11.2124 7.82096 11.1292 7.63886C11.046 7.45675 10.6981 7.43725 10.3521 7.5953C10.0061 7.75335 9.79302 8.0291 9.8762 8.21121C9.95939 8.39331 10.3073 8.41281 10.6533 8.25476Z" fill="#F9BF2C"/>
<path d="M10.3424 9.15704C10.7028 9.03555 10.9432 8.78326 10.8793 8.59355C10.8153 8.40384 10.4713 8.34854 10.1108 8.47003C9.75037 8.59153 9.51 8.84381 9.57394 9.03352C9.63789 9.22324 9.98193 9.27854 10.3424 9.15704Z" fill="#F9A823"/>
<path d="M17.49 8.56247C17.5222 8.36487 17.244 8.15504 16.8686 8.09379C16.4931 8.03255 16.1626 8.14309 16.1304 8.3407C16.0982 8.5383 16.3764 8.74813 16.7518 8.80937C17.1273 8.87061 17.4578 8.76007 17.49 8.56247Z" fill="#F9A823"/>
<path d="M18.5621 8.02562C18.6219 7.83457 18.3762 7.58752 18.0132 7.47382C17.6502 7.36013 17.3074 7.42284 17.2475 7.61389C17.1877 7.80494 17.4335 8.05199 17.7965 8.16569C18.1595 8.27939 18.5022 8.21668 18.5621 8.02562Z" fill="#F9A823"/>
<path d="M9.40558 8.23685C9.73298 8.04316 9.91575 7.74645 9.8138 7.57414C9.71186 7.40182 9.36381 7.41915 9.03641 7.61285C8.70901 7.80654 8.52624 8.10325 8.62819 8.27556C8.73013 8.44788 9.07818 8.43055 9.40558 8.23685Z" fill="#F9A823"/>
<path d="M8.95874 9.30258C9.28614 9.10889 9.46891 8.81218 9.36696 8.63987C9.26502 8.46756 8.91697 8.48489 8.58957 8.67858C8.26217 8.87227 8.07941 9.16898 8.18135 9.34129C8.28329 9.51361 8.63134 9.49628 8.95874 9.30258Z" fill="#F9A823"/>
<path d="M12.2762 18.7262C12.6555 18.6973 12.9506 18.512 12.9354 18.3124C12.9202 18.1128 12.6003 17.9744 12.2211 18.0033C11.8418 18.0323 11.5467 18.2176 11.5619 18.4172C11.5771 18.6168 11.8969 18.7552 12.2762 18.7262Z" fill="#FDD836"/>
<path d="M12.3623 19.4332C12.7416 19.4042 13.0367 19.2189 13.0215 19.0193C13.0062 18.8197 12.6864 18.6813 12.3071 18.7103C11.9279 18.7392 11.6327 18.9245 11.648 19.1241C11.6632 19.3238 11.983 19.4621 12.3623 19.4332Z" fill="#F9BF2C"/>
<path d="M15.0686 18.3808C15.0737 18.1806 14.7695 18.0106 14.3892 18.0009C14.009 17.9912 13.6966 18.1457 13.6915 18.3458C13.6864 18.5459 13.9906 18.716 14.3708 18.7257C14.7511 18.7353 15.0635 18.5809 15.0686 18.3808Z" fill="#FDD836"/>
<path d="M16.4433 19.086C16.4484 18.8859 16.1443 18.7158 15.764 18.7062C15.3837 18.6965 15.0713 18.8509 15.0662 19.0511C15.0612 19.2512 15.3653 19.4213 15.7456 19.4309C16.1259 19.4406 16.4382 19.2862 16.4433 19.086Z" fill="#F9BF2C"/>
<path d="M13.9419 19.7603C14.3218 19.7411 14.6215 19.5635 14.6114 19.3636C14.6014 19.1636 14.2852 19.0171 13.9053 19.0362C13.5254 19.0554 13.2256 19.233 13.2357 19.433C13.2458 19.6329 13.562 19.7795 13.9419 19.7603Z" fill="#FDD836"/>
<path d="M16.4968 18.4632C16.5257 18.2651 16.2441 18.06 15.8677 18.0051C15.4913 17.9501 15.1627 18.0662 15.1338 18.2643C15.1049 18.4624 15.3866 18.6675 15.763 18.7224C16.1394 18.7774 16.4679 18.6613 16.4968 18.4632Z" fill="#FDD836"/>
<path d="M10.654 19.728C11 19.5699 11.2131 19.2942 11.1299 19.1121C11.0467 18.93 10.6988 18.9105 10.3528 19.0685C10.0068 19.2266 9.79375 19.5023 9.87694 19.6844C9.96012 19.8665 10.308 19.886 10.654 19.728Z" fill="#F9BF2C"/>
<path d="M10.3432 20.6298C10.7037 20.5083 10.9441 20.256 10.8801 20.0663C10.8162 19.8766 10.4721 19.8213 10.1117 19.9428C9.75122 20.0643 9.51085 20.3166 9.5748 20.5063C9.63874 20.696 9.98279 20.7513 10.3432 20.6298Z" fill="#F9A823"/>
<path d="M17.4935 20.0331C17.5257 19.8355 17.2475 19.6257 16.8721 19.5645C16.4966 19.5032 16.1661 19.6138 16.1339 19.8114C16.1017 20.009 16.3799 20.2188 16.7553 20.28C17.1308 20.3413 17.4613 20.2308 17.4935 20.0331Z" fill="#F9A823"/>
<path d="M19.6325 20.7091C19.7056 20.5227 19.4777 20.259 19.1235 20.1202C18.7693 19.9814 18.423 20.02 18.3499 20.2064C18.2769 20.3928 18.5048 20.6565 18.8589 20.7953C19.2131 20.9341 19.5595 20.8955 19.6325 20.7091Z" fill="#F9A823"/>
<path d="M18.5652 19.4965C18.625 19.3055 18.3793 19.0584 18.0162 18.9447C17.6532 18.831 17.3105 18.8937 17.2506 19.0848C17.1908 19.2758 17.4365 19.5229 17.7995 19.6366C18.1625 19.7503 18.5053 19.6876 18.5652 19.4965Z" fill="#F9A823"/>
<path d="M9.40766 19.7099C9.73505 19.5162 9.91782 19.2195 9.81588 19.0471C9.71393 18.8748 9.36588 18.8922 9.03849 19.0858C8.71109 19.2795 8.52832 19.5762 8.63026 19.7486C8.73221 19.9209 9.08026 19.9035 9.40766 19.7099Z" fill="#F9A823"/>
<path d="M8.78513 21.0022C9.11253 20.8085 9.29529 20.5118 9.19335 20.3395C9.09141 20.1671 8.74336 20.1845 8.41596 20.3782C8.08856 20.5719 7.90579 20.8686 8.00774 21.0409C8.10968 21.2132 8.45773 21.1959 8.78513 21.0022Z" fill="#F9A823"/>
<path d="M51.62 32.4891C51.4977 31.4695 50.5144 31.5647 50.4464 31.5828C50.2788 31.1931 49.7531 31.1478 49.3045 31.1478C49.0916 31.1478 48.8378 31.2112 48.6067 31.32C48.3575 31.4378 48.0766 31.4378 47.8274 31.32C47.5963 31.2112 47.3425 31.1478 47.1295 31.1478C46.9166 31.1478 46.6628 31.2112 46.4317 31.32C46.1825 31.4378 45.9016 31.4378 45.6524 31.32C45.4213 31.2112 45.1675 31.1478 44.9545 31.1478C44.7416 31.1478 44.4878 31.2112 44.2567 31.32C44.0075 31.4378 43.7266 31.4378 43.4773 31.32C43.2463 31.2112 42.9925 31.1478 42.7795 31.1478C42.5666 31.1478 42.3128 31.2112 42.0817 31.32C41.8325 31.4378 41.5516 31.4378 41.3023 31.32C41.0713 31.2112 40.8175 31.1478 40.6045 31.1478C40.1514 31.1478 39.5352 31.2112 39.3675 31.6055C39.295 31.5873 38.5519 31.7595 38.3163 32.4075C38.0217 32.8017 37.845 33.2911 37.845 33.8258V43.3686C37.845 44.6827 38.9098 45.7475 40.2239 45.7475H49.6399C50.9539 45.7475 52.0188 44.6827 52.0188 43.3686V33.8167C52.0278 33.3273 51.8783 32.8697 51.62 32.4891Z" fill="url(#paint16_linear_3:388)"/>
<g opacity="0.2">
<path opacity="0.2" d="M42.1678 35.5884C41.9367 35.6519 41.2299 35.8966 41.0078 35.8648C40.1605 35.738 39.4672 35.1353 39.2135 34.6641C39.0005 34.2653 39.9339 34.2155 40.0064 34.3423C40.3961 35.0492 41.5969 34.5145 42.1135 34.5553C42.9789 34.6233 43.6178 35.1806 42.1678 35.5884Z" fill="#434343"/>
</g>
<path d="M42.7614 35.0084C42.7614 35.0084 42.5892 35.2259 41.5244 35.2169L38.8917 33.0781C38.7014 32.915 39.073 32.625 39.3041 32.4981L39.4491 32.4211C39.5669 32.3577 39.7119 32.3395 39.8433 32.3758L43.2372 33.273C43.4955 33.3409 43.6224 33.5766 43.5091 33.7759L42.911 34.8634C42.8792 34.9223 42.8249 34.9722 42.7614 35.0084Z" fill="#F47C20"/>
<path d="M41.4383 35.2033L39.5261 34.7773C39.4219 34.7547 39.3403 34.6867 39.3086 34.6052L38.7784 33.0781C38.7105 32.8833 38.9461 32.7066 39.1817 32.7745L42.263 33.6763C42.4261 33.7261 42.5077 33.8711 42.4488 34.0025L41.982 34.9813C41.905 35.158 41.6649 35.2531 41.4383 35.2033Z" fill="#F37021"/>
<g opacity="0.2">
<path opacity="0.2" d="M42.4714 38.8147C42.6889 38.9008 42.6482 39.2723 43.79 39.2134C44.9319 39.1545 45.9695 38.8509 46.2913 38.2573C46.5042 37.8586 45.5708 37.8088 45.4983 37.9356C45.1086 38.6425 43.9078 38.1078 43.3913 38.1486C42.5213 38.2211 42.1497 38.6923 42.4714 38.8147Z" fill="#434343"/>
</g>
<path d="M43.1738 38.783L45.8563 38.1123L46.0375 37.12L45.2672 36.5038C45.1675 36.4222 45.0497 36.3769 44.9228 36.3633L42.8928 36.173C42.6527 36.25 42.2494 36.7711 42.3536 37.0022L42.4896 38.4159L43.1738 38.783Z" fill="#F47C20"/>
<path d="M43.5227 38.7694L45.6433 38.3208C45.7928 38.2891 45.9152 38.1894 45.9786 38.0489L46.1508 37.6592C46.2822 37.3602 46.0828 37.0203 45.7566 36.9931L43.5182 36.7937C43.2508 36.7711 43.0152 36.975 43.0016 37.2423L42.9472 38.28C42.9336 38.5927 43.2191 38.8373 43.5227 38.7694Z" fill="#F37021"/>
<g opacity="0.2">
<path opacity="0.2" d="M47.9769 43.1239C48.1944 43.21 48.1536 43.5816 49.2955 43.5227C50.4374 43.4637 51.475 43.1602 51.7967 42.5666C52.0097 42.1678 51.0763 42.118 51.0038 42.2448C50.6141 42.9517 49.4133 42.417 48.8968 42.4578C48.0268 42.5258 47.6597 42.997 47.9769 43.1239Z" fill="#434343"/>
</g>
<path d="M48.6792 43.0922L51.3617 42.4216L51.543 41.4292L50.7727 40.813C50.673 40.7314 50.5552 40.6861 50.4283 40.6725L48.1355 41.0214C47.8953 41.0984 47.4921 41.6195 47.5963 41.8506L47.9905 42.7252L48.6792 43.0922Z" fill="#F47C20"/>
<path d="M49.0327 43.0786L51.1533 42.63C51.3028 42.5983 51.4252 42.4986 51.4886 42.3581L51.6608 41.9684C51.7922 41.6694 51.5928 41.3295 51.2666 41.3023L48.711 41.47C48.4436 41.4473 48.208 41.6512 48.1944 41.9186L48.4527 42.5892C48.4436 42.9019 48.7246 43.1466 49.0327 43.0786Z" fill="#F37021"/>
<g opacity="0.2">
<path opacity="0.2" d="M43.4728 44.9137C43.2553 44.9998 43.2961 45.3714 42.1542 45.3125C41.0124 45.2536 39.9747 44.95 39.653 44.3564C39.44 43.9577 40.3734 43.9078 40.4459 44.0347C40.8356 44.7416 42.0364 44.2069 42.553 44.2477C43.423 44.3156 43.79 44.7869 43.4728 44.9137Z" fill="#434343"/>
</g>
<path d="M42.7705 44.8775L40.088 44.2069L39.9067 43.2145L40.677 42.5983C40.7767 42.5167 40.8946 42.4714 41.0214 42.4578L43.3142 42.8067C43.5544 42.8837 43.9577 43.4048 43.8535 43.6359L43.4592 44.5105L42.7705 44.8775Z" fill="#F47C20"/>
<path d="M42.417 44.8684L40.2964 44.4198C40.1469 44.3881 40.0245 44.2884 39.9611 44.148L39.7889 43.7583C39.6575 43.4592 39.8569 43.1194 40.1831 43.0922L42.7388 43.2598C43.0061 43.2372 43.2417 43.4411 43.2553 43.7084L42.997 44.3791C43.0061 44.6917 42.7252 44.9319 42.417 44.8684Z" fill="#F37021"/>
<path d="M40.2919 35.3619C40.3961 35.5658 40.6997 35.7108 40.6997 35.7108L41.8552 35.4842C41.8552 35.4842 41.982 35.38 42.0364 35.3166C42.2313 35.0855 41.7374 33.9028 41.1075 34.1883C40.4777 34.4737 40.1061 34.9948 40.2919 35.3619Z" fill="#FCB316"/>
<path d="M40.8165 35.371C41.0426 35.3059 41.2056 35.1829 41.1806 35.0963C41.1557 35.0098 40.9522 34.9924 40.7262 35.0575C40.5001 35.1227 40.3371 35.2457 40.3621 35.3322C40.387 35.4188 40.5905 35.4362 40.8165 35.371Z" fill="#F78F1E"/>
<path d="M46.5541 38.4658C46.1916 38.1395 45.8427 38.3117 45.4756 38.5202C45.2581 38.6425 45.0406 38.8555 44.9455 39.1409C44.8503 39.4264 45.7339 40.3553 46.2188 39.8569C46.7036 39.3584 46.8622 38.7377 46.5541 38.4658Z" fill="#FCB316"/>
<path d="M46.2551 38.9034C46.4424 38.7611 46.55 38.5876 46.4955 38.5158C46.441 38.4441 46.245 38.5014 46.0577 38.6437C45.8704 38.786 45.7628 38.9596 45.8173 39.0313C45.8718 39.103 46.0679 39.0458 46.2551 38.9034Z" fill="#F78F1E"/>
<path d="M48.3711 44.9319C48.5343 45.3895 48.9194 45.4122 49.3408 45.4077C49.59 45.4031 49.8846 45.3261 50.1066 45.1222C50.3286 44.9183 50.0024 43.6812 49.3408 43.8806C48.6747 44.08 48.2352 44.5422 48.3711 44.9319Z" fill="#FCB316"/>
<path d="M48.8887 45.0162C49.1215 44.9822 49.2996 44.8823 49.2866 44.7932C49.2735 44.704 49.0743 44.6594 48.8415 44.6934C48.6087 44.7275 48.4306 44.8274 48.4437 44.9165C48.4567 45.0057 48.656 45.0503 48.8887 45.0162Z" fill="#F78F1E"/>
<path d="M37.9175 42.4986C38.0806 42.9562 38.4658 42.9789 38.8872 42.9744C39.1364 42.9698 39.431 42.8928 39.653 42.6889C39.875 42.485 39.5488 41.248 38.8872 41.4473C38.2211 41.6422 37.7816 42.1089 37.9175 42.4986Z" fill="#FCB316"/>
<path d="M38.4352 42.5823C38.668 42.5483 38.8461 42.4484 38.833 42.3592C38.82 42.2701 38.6207 42.2254 38.388 42.2595C38.1552 42.2936 37.9771 42.3935 37.9901 42.4826C38.0032 42.5717 38.2024 42.6164 38.4352 42.5823Z" fill="#F78F1E"/>
<path opacity="0.2" d="M49.8528 34.4738C50.2507 34.4738 50.5733 34.3013 50.5733 34.0886C50.5733 33.8759 50.2507 33.7034 49.8528 33.7034C49.4549 33.7034 49.1324 33.8759 49.1324 34.0886C49.1324 34.3013 49.4549 34.4738 49.8528 34.4738Z" fill="#434343"/>
<path d="M49.8438 34.0659C50.2417 34.0659 50.5642 33.7434 50.5642 33.3455C50.5642 32.9476 50.2417 32.625 49.8438 32.625C49.4459 32.625 49.1233 32.9476 49.1233 33.3455C49.1233 33.7434 49.4459 34.0659 49.8438 34.0659Z" fill="url(#paint17_radial_3:388)"/>
<path opacity="0.2" d="M40.4505 39.0911C40.8484 39.0911 41.1709 38.9187 41.1709 38.7059C41.1709 38.4932 40.8484 38.3208 40.4505 38.3208C40.0526 38.3208 39.73 38.4932 39.73 38.7059C39.73 38.9187 40.0526 39.0911 40.4505 39.0911Z" fill="#434343"/>
<path d="M40.4414 38.6787C40.8393 38.6787 41.1619 38.3562 41.1619 37.9583C41.1619 37.5604 40.8393 37.2378 40.4414 37.2378C40.0435 37.2378 39.7209 37.5604 39.7209 37.9583C39.7209 38.3562 40.0435 38.6787 40.4414 38.6787Z" fill="url(#paint18_radial_3:388)"/>
<path opacity="0.2" d="M48.4345 40.1469C48.8325 40.1469 49.155 39.9744 49.155 39.7617C49.155 39.549 48.8325 39.3766 48.4345 39.3766C48.0366 39.3766 47.7141 39.549 47.7141 39.7617C47.7141 39.9744 48.0366 40.1469 48.4345 40.1469Z" fill="#434343"/>
<path d="M48.4255 39.7391C48.8234 39.7391 49.146 39.4165 49.146 39.0186C49.146 38.6207 48.8234 38.2981 48.4255 38.2981C48.0276 38.2981 47.705 38.6207 47.705 39.0186C47.705 39.4165 48.0276 39.7391 48.4255 39.7391Z" fill="url(#paint19_radial_3:388)"/>
<path opacity="0.2" d="M45.7792 45.0406C46.1771 45.0406 46.4997 44.8682 46.4997 44.6555C46.4997 44.4428 46.1771 44.2703 45.7792 44.2703C45.3813 44.2703 45.0587 44.4428 45.0587 44.6555C45.0587 44.8682 45.3813 45.0406 45.7792 45.0406Z" fill="#434343"/>
<path d="M45.7702 44.6328C46.1681 44.6328 46.4906 44.3103 46.4906 43.9123C46.4906 43.5144 46.1681 43.1919 45.7702 43.1919C45.3723 43.1919 45.0497 43.5144 45.0497 43.9123C45.0497 44.3103 45.3723 44.6328 45.7702 44.6328Z" fill="url(#paint20_radial_3:388)"/>
<path opacity="0.2" d="M49.948 36.7303C49.948 37.0339 49.59 37.1698 48.6702 37.0701C48.0177 37.0022 47.7866 37.0883 47.7866 36.7847C47.7866 36.4811 47.7639 35.7198 48.6974 35.5975C49.6308 35.4797 49.948 36.2772 49.948 36.7303Z" fill="#434343"/>
<path d="M48.7517 36.2681C49.2819 36.2862 49.8347 36.83 49.8574 36.7937C49.9117 36.7122 49.8166 35.9056 49.6761 35.8195L48.7608 35.2758C48.6521 35.2123 48.5116 35.2441 48.4391 35.3528L47.8908 36.0914L47.9135 36.8527C48.1989 36.9252 48.2216 36.25 48.7517 36.2681Z" fill="#AF5C2B"/>
<path d="M48.5931 36.8617C48.6611 36.8844 48.9375 36.975 49.1097 36.9614C49.3634 36.9387 49.3952 36.8527 49.6806 36.8753C49.948 36.898 49.8755 36.685 49.6897 36.5763L48.7744 36.0325C48.6656 35.9691 48.5252 36.0008 48.4527 36.1095L47.9044 36.8481C48.2986 36.9931 48.3756 36.7847 48.5931 36.8617Z" fill="#8B4A22"/>
<path d="M48.6384 35.96H48.6294C48.5614 35.96 48.5116 35.9056 48.5116 35.8422V35.3981C48.5116 35.3302 48.5659 35.2803 48.6294 35.2803H48.6384C48.7064 35.2803 48.7563 35.3347 48.7563 35.3981V35.8422C48.7608 35.9056 48.7064 35.96 48.6384 35.96Z" fill="#C56E39"/>
<path opacity="0.2" d="M46.5767 34.9994C46.5767 35.303 46.2188 35.4389 45.2989 35.3392C44.6464 35.2712 44.4153 35.3573 44.4153 35.0537C44.4153 34.7502 44.3927 33.9889 45.3261 33.8666C46.2595 33.7487 46.5767 34.5462 46.5767 34.9994Z" fill="#434343"/>
<path d="M45.3805 34.5372C45.9107 34.5553 46.4635 35.0991 46.4861 35.0628C46.5405 34.9812 46.4453 34.1747 46.3049 34.0886L45.3896 33.5448C45.2808 33.4814 45.1403 33.5131 45.0678 33.6219L44.5196 34.3605L44.5422 35.1217C44.8277 35.1942 44.8503 34.5191 45.3805 34.5372Z" fill="#AF5C2B"/>
<path d="M45.2219 35.1308C45.2899 35.1534 45.5663 35.2441 45.7385 35.2305C45.9922 35.2078 46.0239 35.1217 46.3094 35.1444C46.5767 35.167 46.5042 34.9541 46.3185 34.8453L45.4031 34.3016C45.2944 34.2381 45.1539 34.2698 45.0814 34.3786L44.5331 35.1172C44.9319 35.2622 45.0044 35.0537 45.2219 35.1308Z" fill="#8B4A22"/>
<path d="M45.2717 34.2291H45.2627C45.1947 34.2291 45.1449 34.1747 45.1449 34.1113V33.6672C45.1449 33.5992 45.1992 33.5494 45.2627 33.5494H45.2717C45.3397 33.5494 45.3895 33.6038 45.3895 33.6672V34.1113C45.3895 34.1792 45.3352 34.2291 45.2717 34.2291Z" fill="#C56E39"/>
<path opacity="0.2" d="M42.9653 40.9262C42.9653 41.2298 42.6074 41.3658 41.6875 41.2661C41.035 41.1981 40.8039 41.2842 40.8039 40.9806C40.8039 40.677 40.7813 39.9158 41.7147 39.7934C42.6482 39.6801 42.9653 40.4776 42.9653 40.9262Z" fill="#434343"/>
<path d="M41.7646 40.4641C42.2947 40.4822 42.8475 41.0259 42.8702 40.9897C42.9246 40.9081 42.8294 40.1016 42.6889 40.0155L41.7736 39.4717C41.6649 39.4083 41.5244 39.44 41.4519 39.5487L40.9036 40.2873L40.9263 41.0486C41.2163 41.1211 41.2344 40.4459 41.7646 40.4641Z" fill="#AF5C2B"/>
<path d="M41.6105 41.0577C41.6785 41.0803 41.9549 41.1709 42.1271 41.1573C42.3808 41.1347 42.4125 41.0486 42.698 41.0712C42.9654 41.0939 42.8929 40.8809 42.7071 40.7722L41.7918 40.2284C41.683 40.165 41.5425 40.1967 41.47 40.3055L40.9218 41.0441C41.316 41.1891 41.393 40.9806 41.6105 41.0577Z" fill="#8B4A22"/>
<path d="M41.6558 40.1605H41.6467C41.5788 40.1605 41.5289 40.1061 41.5289 40.0426V39.5986C41.5289 39.5306 41.5833 39.4808 41.6467 39.4808H41.6558C41.7238 39.4808 41.7736 39.5351 41.7736 39.5986V40.0426C41.7736 40.1061 41.7238 40.1605 41.6558 40.1605Z" fill="#C56E39"/>
<path opacity="0.2" d="M48.8741 16.752C48.8741 14.6586 46.0647 12.9639 42.5937 12.9639C39.1273 12.9639 36.3134 14.6586 36.3134 16.752C36.3134 17.5087 36.685 18.2111 37.3194 18.8047C36.2591 19.7381 35.602 20.9978 35.602 22.3844C35.602 25.2662 38.4114 27.6044 41.8823 27.6044C45.3487 27.6044 48.1626 25.2662 48.1626 22.3844C48.1626 21.2833 47.7503 20.2637 47.0525 19.4209C48.1762 18.7367 48.8741 17.7942 48.8741 16.752Z" fill="#212121"/>
<path d="M42.1361 27.695C45.1116 27.695 47.5238 25.6075 47.5238 23.0323C47.5238 20.4572 45.1116 18.3697 42.1361 18.3697C39.1606 18.3697 36.7484 20.4572 36.7484 23.0323C36.7484 25.6075 39.1606 27.695 42.1361 27.695Z" fill="#1E5F30"/>
<path d="M42.1361 27.1966C45.1116 27.1966 47.5238 25.109 47.5238 22.5339C47.5238 19.9588 45.1116 17.8713 42.1361 17.8713C39.1606 17.8713 36.7484 19.9588 36.7484 22.5339C36.7484 25.109 39.1606 27.1966 42.1361 27.1966Z" fill="#4D803B"/>
<path d="M42.1361 26.2586C44.5861 26.2586 46.5722 24.5403 46.5722 22.4206C46.5722 20.301 44.5861 18.5827 42.1361 18.5827C39.6861 18.5827 37.7 20.301 37.7 22.4206C37.7 24.5403 39.6861 26.2586 42.1361 26.2586Z" fill="#B7CE7A"/>
<path d="M42.1361 25.162C43.8854 25.162 45.3034 23.9347 45.3034 22.4206C45.3034 20.9066 43.8854 19.6792 42.1361 19.6792C40.3868 19.6792 38.9688 20.9066 38.9688 22.4206C38.9688 23.9347 40.3868 25.162 42.1361 25.162Z" fill="#B3CA62"/>
<path d="M47.7775 6.15343C48.6611 7.58984 47.9497 9.64703 46.187 10.7481C44.4244 11.8492 42.2766 11.5819 41.3884 10.1455C40.5048 8.70906 41.2162 6.65187 42.9789 5.55078C44.7416 4.44968 46.8939 4.71703 47.7775 6.15343Z" fill="#568B3E"/>
<path opacity="0.2" d="M48.362 21.46C47.8681 22.9145 45.1765 23.3133 42.3536 22.3436C39.5261 21.3739 37.6365 19.4073 38.1305 17.9528C38.6244 16.4983 41.3159 16.0995 44.1389 17.0692C46.9619 18.0389 48.8559 20.0055 48.362 21.46Z" fill="#212121"/>
<path d="M44.3609 10.7164C43.5997 7.84359 41.2027 5.99484 39.005 6.58391C36.8074 7.17297 35.6428 9.98234 36.4086 12.8506C37.1699 15.7234 39.5669 17.5722 41.7645 16.9831C43.9622 16.3941 45.1222 13.5892 44.3609 10.7164Z" fill="#1E5F30"/>
<path d="M42.1905 16.8698C39.9928 17.4589 37.5958 15.6102 36.8345 12.7373C36.0733 9.86453 37.2378 7.05969 39.4309 6.47062C41.6241 5.88156 44.0256 7.73031 44.7869 10.6031C45.5526 13.4759 44.3881 16.2808 42.1905 16.8698Z" fill="#568B3E"/>
<path d="M42.0409 15.9273C40.233 16.4122 38.2573 14.8897 37.632 12.5244C37.0067 10.1591 37.9628 7.85265 39.7708 7.36328C41.5787 6.8739 43.5544 8.40094 44.1797 10.7662C44.805 13.1316 43.8489 15.4425 42.0409 15.9273Z" fill="#CEE298"/>
<path d="M41.7147 14.7039C40.4233 15.0528 39.014 13.9653 38.5654 12.2752C38.1169 10.585 38.8011 8.93562 40.0925 8.59125C41.3839 8.24687 42.7931 9.32984 43.2417 11.02C43.6903 12.7056 43.0061 14.355 41.7147 14.7039Z" fill="#C4DC72"/>
<path d="M47.347 6.0764C44.8231 5.01609 42.0772 5.84078 41.2162 7.91609C40.3553 9.9914 41.7056 12.5334 44.2295 13.5937C46.7534 14.6541 49.4994 13.8294 50.3603 11.7541C51.2212 9.67875 49.8755 7.13671 47.347 6.0764Z" fill="#1E5F30"/>
<path d="M50.5325 11.3508C49.6715 13.4261 46.9301 14.2508 44.4017 13.1905C41.8778 12.1302 40.5275 9.58812 41.3884 7.51281C42.2494 5.43749 44.9908 4.61281 47.5192 5.67312C50.0431 6.73343 51.3934 9.27546 50.5325 11.3508Z" fill="#568B3E"/>
<path d="M49.7576 10.9248C49.0508 12.6331 46.7897 13.3128 44.7098 12.4383C42.63 11.5683 41.5198 9.47483 42.2267 7.76655C42.9336 6.05827 45.1947 5.37858 47.2745 6.25311C49.3544 7.12765 50.4691 9.21655 49.7576 10.9248Z" fill="#CEE298"/>
<path d="M48.9148 10.5714C48.3665 11.8991 46.6129 12.4247 44.9998 11.745C43.3867 11.0698 42.5258 9.44312 43.074 8.11999C43.6223 6.79687 45.3759 6.26671 46.989 6.9464C48.6022 7.62156 49.4631 9.24375 48.9148 10.5714Z" fill="#C4DC72"/>
<path d="M47.8228 12.1528C45.1313 12.6603 43.287 14.8625 43.6994 17.0738C44.1117 19.285 46.6266 20.667 49.3136 20.1595C52.0052 19.652 53.8494 17.4498 53.437 15.2386C53.0247 13.0273 50.5144 11.6453 47.8228 12.1528Z" fill="#1E5F30"/>
<path d="M53.36 14.5544C53.7724 16.7656 51.9236 18.9678 49.2366 19.4753C46.545 19.9828 44.0347 18.6008 43.6223 16.3895C43.21 14.1783 45.0588 11.9761 47.7458 11.4686C50.4328 10.9611 52.9477 12.3431 53.36 14.5544Z" fill="#4D803B"/>
<path d="M52.4809 14.6223C52.8208 16.4439 51.2983 18.2564 49.087 18.6733C46.8713 19.0902 44.805 17.9528 44.4652 16.1358C44.1253 14.3142 45.6478 12.5017 47.8591 12.0848C50.0703 11.6634 52.1411 12.8008 52.4809 14.6223Z" fill="#B7CE7A"/>
<path d="M51.7741 14.7538C52.055 16.2536 50.7998 17.7489 48.9783 18.0887C47.1567 18.4331 45.4484 17.4952 45.172 15.9953C44.8911 14.4955 46.1463 13.0002 47.9678 12.6603C49.7894 12.3159 51.4931 13.2539 51.7741 14.7538Z" fill="#B3CA62"/>
<path opacity="0.2" d="M31.252 18.2927C34.7205 18.2927 37.5323 16.7265 37.5323 14.7945C37.5323 12.8626 34.7205 11.2964 31.252 11.2964C27.7835 11.2964 24.9717 12.8626 24.9717 14.7945C24.9717 16.7265 27.7835 18.2927 31.252 18.2927Z" fill="#212121"/>
<path d="M43.6087 13.63C40.8583 12.4836 38.0308 13.0092 37.2922 14.8036C36.5536 16.598 38.1848 18.9814 40.9308 20.1278C43.6812 21.2742 46.5087 20.7486 47.2473 18.9542C47.9859 17.1599 46.3547 14.7764 43.6087 13.63Z" fill="#1E5F30"/>
<path d="M47.4195 18.1024C46.6809 19.8967 43.8534 20.4224 41.103 19.2759C38.3525 18.1295 36.7258 15.7461 37.4644 13.9517C38.203 12.1573 41.0305 11.6317 43.7809 12.7781C46.5314 13.9245 48.1581 16.308 47.4195 18.1024Z" fill="#568B3E"/>
<path d="M46.5722 17.6583C45.965 19.1355 43.6359 19.5659 41.3748 18.6234C39.1137 17.6809 37.7725 15.7189 38.3797 14.2417C38.9869 12.7645 41.3159 12.3341 43.577 13.2766C45.8381 14.2236 47.1794 16.1856 46.5722 17.6583Z" fill="#F9EBBB"/>
<path d="M45.7883 17.332C45.2944 18.5283 43.4139 18.8772 41.5833 18.1114C39.7526 17.3502 38.6697 15.7597 39.1591 14.568C39.653 13.3717 41.5334 13.0228 43.3641 13.7886C45.1947 14.5544 46.2822 16.1403 45.7883 17.332Z" fill="#DEE67C"/>
<path d="M47.7775 19.2759C45.2491 19.5523 43.3414 21.1156 43.5227 22.765C43.6994 24.4144 45.897 25.5291 48.4255 25.2527C50.9539 24.9763 52.8616 23.413 52.6803 21.7636C52.5036 20.1142 50.3059 18.9995 47.7775 19.2759Z" fill="#1E5F30"/>
<path opacity="0.2" d="M52.7845 22.3119C52.9613 23.9613 51.0581 25.5245 48.5297 25.8009C46.0013 26.0774 43.8036 24.9672 43.6269 23.3133C43.4502 21.6639 45.3533 20.1006 47.8817 19.8242C50.4102 19.5478 52.6033 20.6625 52.7845 22.3119Z" fill="#212121"/>
<path d="M52.5897 21.2606C52.7664 22.91 50.8633 24.4733 48.3348 24.7497C45.8064 25.0261 43.6087 23.9159 43.432 22.262C43.2553 20.6127 45.1584 19.0494 47.6869 18.773C50.2153 18.4966 52.413 19.6113 52.5897 21.2606Z" fill="#568B3E"/>
<path d="M51.7741 21.2788C51.9191 22.6381 50.3512 23.925 48.2714 24.1516C46.1916 24.3781 44.3836 23.4628 44.2341 22.1034C44.0891 20.7441 45.6569 19.4572 47.7367 19.2306C49.8166 19.0041 51.6245 19.9194 51.7741 21.2788Z" fill="#F9EBBB"/>
<path d="M51.0536 21.3603C51.1714 22.4614 49.9027 23.4991 48.2216 23.6848C46.5359 23.8706 45.0769 23.1275 44.9545 22.0309C44.8367 20.9298 46.1055 19.8922 47.7866 19.7064C49.4722 19.5206 50.9313 20.2592 51.0536 21.3603Z" fill="#DEE67C"/>
<path d="M26.5169 14.7356C24.8901 12.8778 24.9219 10.807 24.8856 10.2134C24.7587 8.10188 25.9187 7.95688 28.3475 6.97813C31.4605 5.72297 38.0806 5.15656 38.2755 8.0611C38.5428 12.0577 36.8481 14.858 33.1234 16.3125C30.3503 17.3909 27.9895 16.4122 26.5169 14.7356Z" fill="#CCB795"/>
<path d="M25.307 12.1166C23.9658 9.53375 25.2391 6.50234 28.352 5.24719C31.465 3.99203 36.9569 4.49953 38.0353 7.20469C39.1138 9.90984 35.5567 14.1556 32.3078 14.9803C28.8414 15.8548 26.5169 14.4456 25.307 12.1166Z" fill="url(#paint21_radial_3:388)"/>
<path d="M27.2238 11.0517C26.5622 9.39328 27.183 7.60797 29.0906 6.83766C30.9983 6.06735 33.1416 6.55672 33.8031 8.21516C34.4647 9.8736 33.427 12.035 31.5149 12.8053C29.6072 13.5756 27.8808 12.7102 27.2238 11.0517Z" fill="url(#paint22_radial_3:388)"/>
<path opacity="0.2" d="M31.252 28.4245C34.7205 28.4245 37.5323 26.8584 37.5323 24.9264C37.5323 22.9944 34.7205 21.4283 31.252 21.4283C27.7835 21.4283 24.9717 22.9944 24.9717 24.9264C24.9717 26.8584 27.7835 28.4245 31.252 28.4245Z" fill="#212121"/>
<path d="M26.5169 25.2119C24.8901 23.3541 24.9219 21.2833 24.8856 20.6897C24.7587 18.5781 25.9187 18.4331 28.3475 17.4544C31.4605 16.1992 38.0806 15.6328 38.2755 18.5374C38.5428 22.5339 36.8481 25.3342 33.1234 26.7888C30.3503 27.8672 27.9895 26.8885 26.5169 25.2119Z" fill="#CCB795"/>
<path d="M25.307 22.5928C23.9658 20.01 25.2391 16.9786 28.352 15.7234C31.465 14.4683 36.9569 14.9758 38.0353 17.6809C39.1138 20.3861 35.5567 24.6319 32.3078 25.4566C28.8414 26.3311 26.5169 24.9264 25.307 22.5928Z" fill="url(#paint23_radial_3:388)"/>
<path d="M27.2238 21.528C26.5622 19.8695 27.183 18.0842 29.0906 17.3139C30.9983 16.5436 33.1416 17.033 33.8031 18.6914C34.4647 20.3499 33.427 22.5113 31.5149 23.2816C29.6072 24.0519 27.8808 23.1864 27.2238 21.528Z" fill="url(#paint24_radial_3:388)"/>
<path d="M70.8359 12.625H73.1875V24H70.8359V16.4453L66.2812 24H63.9375V12.625H66.2812V20.1953L70.8359 12.625ZM84.4766 24H82.1328V19.125H77.5625V24H75.2188V12.625H77.5625V17.2344H82.1328V12.625H84.4766V24ZM97.25 26.7969H95.0859V24H88.2266V26.7891H86.0078L85.8828 22.1172H86.7422C87.2057 21.7318 87.5625 21.1667 87.8125 20.4219C88.0677 19.6719 88.2396 18.7448 88.3281 17.6406L88.6562 12.625H96.1094V22.1172H97.4375L97.25 26.7969ZM89.4297 22.1172H93.7656V14.5234H90.8828L90.6875 17.5156C90.5312 19.5208 90.112 21.0547 89.4297 22.1172ZM105.516 19.0703H101.016V22.1172H106.297V24H98.6719V12.625H106.281V14.5234H101.016V17.2344H105.516V19.0703ZM111.383 19.3516H110.031V24H107.688V12.625H110.031V17.1797H111.102L113.883 12.625H116.742L113.234 18.0078L117.109 24H114.312L111.383 19.3516ZM126.695 20.2109C126.607 21.4349 126.154 22.3984 125.336 23.1016C124.523 23.8047 123.451 24.1562 122.117 24.1562C120.659 24.1562 119.51 23.6667 118.672 22.6875C117.839 21.7031 117.422 20.3542 117.422 18.6406V17.9453C117.422 16.8516 117.615 15.888 118 15.0547C118.385 14.2214 118.935 13.5833 119.648 13.1406C120.367 12.6927 121.201 12.4688 122.148 12.4688C123.461 12.4688 124.518 12.8203 125.32 13.5234C126.122 14.2266 126.586 15.2135 126.711 16.4844H124.367C124.31 15.75 124.104 15.2188 123.75 14.8906C123.401 14.5573 122.867 14.3906 122.148 14.3906C121.367 14.3906 120.781 14.6719 120.391 15.2344C120.005 15.7917 119.807 16.6589 119.797 17.8359V18.6953C119.797 19.9245 119.982 20.8229 120.352 21.3906C120.727 21.9583 121.315 22.2422 122.117 22.2422C122.841 22.2422 123.38 22.0781 123.734 21.75C124.094 21.4167 124.299 20.9036 124.352 20.2109H126.695ZM70.8594 39.0703H66.3594V42.1172H71.6406V44H64.0156V32.625H71.625V34.5234H66.3594V37.2344H70.8594V39.0703ZM83.5625 46.7969H81.3984V44H74.5391V46.7891H72.3203L72.1953 42.1172H73.0547C73.5182 41.7318 73.875 41.1667 74.125 40.4219C74.3802 39.6719 74.5521 38.7448 74.6406 37.6406L74.9688 32.625H82.4219V42.1172H83.75L83.5625 46.7969ZM75.7422 42.1172H80.0781V34.5234H77.1953L77 37.5156C76.8438 39.5208 76.4245 41.0547 75.7422 42.1172ZM91.5312 41.6562H87.4219L86.6406 44H84.1484L88.3828 32.625H90.5547L94.8125 44H92.3203L91.5312 41.6562ZM88.0547 39.7578H90.8984L89.4688 35.5L88.0547 39.7578Z" fill="black"/>
<defs>
<linearGradient id="paint0_linear_3:388" x1="5.63707" y1="2.78327" x2="52.9127" y2="50.0589" gradientUnits="userSpaceOnUse">
<stop offset="0.2239" stop-color="#434343"/>
<stop offset="0.5619" stop-color="#323535"/>
<stop offset="0.8997" stop-color="#404141"/>
</linearGradient>
<radialGradient id="paint1_radial_3:388" cx="0" cy="0" r="1" gradientUnits="userSpaceOnUse" gradientTransform="translate(19.3816 29.2235) scale(19.2064)">
<stop offset="0.4088" stop-color="white"/>
<stop offset="0.724" stop-color="#ECEFF0"/>
<stop offset="0.9654" stop-color="#D0D8DC"/>
</radialGradient>
<radialGradient id="paint2_radial_3:388" cx="0" cy="0" r="1" gradientUnits="userSpaceOnUse" gradientTransform="translate(18.8986 32.1459) scale(17.7642)">
<stop offset="0.2277" stop-color="white"/>
<stop offset="0.6304" stop-color="#ECEFF0"/>
<stop offset="0.9654" stop-color="#D0D8DC"/>
</radialGradient>
<radialGradient id="paint3_radial_3:388" cx="0" cy="0" r="1" gradientUnits="userSpaceOnUse" gradientTransform="translate(19.3816 29.2235) scale(19.2064)">
<stop offset="0.4088" stop-color="white"/>
<stop offset="0.724" stop-color="#ECEFF0"/>
<stop offset="0.9654" stop-color="#D0D8DC"/>
</radialGradient>
<radialGradient id="paint4_radial_3:388" cx="0" cy="0" r="1" gradientUnits="userSpaceOnUse" gradientTransform="translate(18.9669 32.4988) scale(2.04183 2.33605)">
<stop offset="0.1384" stop-color="#F47C20"/>
<stop offset="0.8823" stop-color="#E45325"/>
</radialGradient>
<radialGradient id="paint5_radial_3:388" cx="0" cy="0" r="1" gradientUnits="userSpaceOnUse" gradientTransform="translate(13.7996 7.41499) scale(7.31172 5.9469)">
<stop offset="0.0529" stop-color="#FFCB28"/>
<stop offset="1" stop-color="#F9A01B"/>
</radialGradient>
<linearGradient id="paint6_linear_3:388" x1="13.8065" y1="16.7076" x2="13.8065" y2="8.98856" gradientUnits="userSpaceOnUse">
<stop offset="0.0303" stop-color="#F37021"/>
<stop offset="1" stop-color="#F9A01B"/>
</linearGradient>
<linearGradient id="paint7_linear_3:388" x1="13.9592" y1="8.03323" x2="13.9592" y2="16.1545" gradientUnits="userSpaceOnUse">
<stop stop-color="#BFCA33"/>
<stop offset="0.8669" stop-color="#679F42"/>
</linearGradient>
<radialGradient id="paint8_radial_3:388" cx="0" cy="0" r="1" gradientUnits="userSpaceOnUse" gradientTransform="translate(13.7996 12.8622) scale(7.31172 5.9469)">
<stop offset="0.0574" stop-color="#FFCB28"/>
<stop offset="1" stop-color="#F9A01B"/>
</radialGradient>
<linearGradient id="paint9_linear_3:388" x1="13.8065" y1="22.1548" x2="13.8065" y2="14.4359" gradientUnits="userSpaceOnUse">
<stop offset="0.0303" stop-color="#F37021"/>
<stop offset="1" stop-color="#F9A01B"/>
</linearGradient>
<linearGradient id="paint10_linear_3:388" x1="13.7506" y1="13.6318" x2="13.7506" y2="21.7531" gradientUnits="userSpaceOnUse">
<stop stop-color="#BFCA33"/>
<stop offset="0.8669" stop-color="#679F42"/>
</linearGradient>
<linearGradient id="paint11_linear_3:388" x1="13.7477" y1="20.9228" x2="13.7477" y2="15.5341" gradientUnits="userSpaceOnUse">
<stop stop-color="#346A34" stop-opacity="0.6"/>
<stop offset="0.9267" stop-color="#679F42" stop-opacity="0"/>
</linearGradient>
<radialGradient id="paint12_radial_3:388" cx="0" cy="0" r="1" gradientUnits="userSpaceOnUse" gradientTransform="translate(13.7996 18.8102) scale(7.31172 5.9469)">
<stop offset="0.0603" stop-color="#FFCB28"/>
<stop offset="1" stop-color="#F9A01B"/>
</radialGradient>
<linearGradient id="paint13_linear_3:388" x1="13.8065" y1="25.932" x2="13.8065" y2="20.3838" gradientUnits="userSpaceOnUse">
<stop offset="0.0303" stop-color="#F37021"/>
<stop offset="1" stop-color="#F9A01B"/>
</linearGradient>
<linearGradient id="paint14_linear_3:388" x1="13.7491" y1="19.4353" x2="13.7491" y2="27.5567" gradientUnits="userSpaceOnUse">
<stop stop-color="#BFCA33"/>
<stop offset="0.8669" stop-color="#679F42"/>
</linearGradient>
<linearGradient id="paint15_linear_3:388" x1="13.6177" y1="25.5053" x2="13.6177" y2="21.2437" gradientUnits="userSpaceOnUse">
<stop stop-color="#346A34" stop-opacity="0.6"/>
<stop offset="0.9267" stop-color="#679F42" stop-opacity="0"/>
</linearGradient>
<linearGradient id="paint16_linear_3:388" x1="44.9387" y1="44.0234" x2="44.9387" y2="29.4277" gradientUnits="userSpaceOnUse">
<stop stop-color="#8D401E"/>
<stop offset="0.6486" stop-color="#BB5B27"/>
</linearGradient>
<radialGradient id="paint17_radial_3:388" cx="0" cy="0" r="1" gradientUnits="userSpaceOnUse" gradientTransform="translate(49.728 33.2007) scale(0.720693)">
<stop offset="0.2043" stop-color="#8BC249"/>
<stop offset="1" stop-color="#679F42"/>
</radialGradient>
<radialGradient id="paint18_radial_3:388" cx="0" cy="0" r="1" gradientUnits="userSpaceOnUse" gradientTransform="translate(40.3254 37.815) scale(0.720691)">
<stop offset="0.2043" stop-color="#8BC249"/>
<stop offset="1" stop-color="#679F42"/>
</radialGradient>
<radialGradient id="paint19_radial_3:388" cx="0" cy="0" r="1" gradientUnits="userSpaceOnUse" gradientTransform="translate(48.312 38.8738) scale(0.720695)">
<stop offset="0.2043" stop-color="#8BC249"/>
<stop offset="1" stop-color="#679F42"/>
</radialGradient>
<radialGradient id="paint20_radial_3:388" cx="0" cy="0" r="1" gradientUnits="userSpaceOnUse" gradientTransform="translate(45.6537 43.7675) scale(0.720699)">
<stop offset="0.2043" stop-color="#8BC249"/>
<stop offset="1" stop-color="#679F42"/>
</radialGradient>
<radialGradient id="paint21_radial_3:388" cx="0" cy="0" r="1" gradientUnits="userSpaceOnUse" gradientTransform="translate(28.6261 7.26595) scale(11.9479 12.0231)">
<stop offset="0.4485" stop-color="#FFF3E1"/>
<stop offset="1" stop-color="#FFE0B2"/>
</radialGradient>
<radialGradient id="paint22_radial_3:388" cx="0" cy="0" r="1" gradientUnits="userSpaceOnUse" gradientTransform="translate(30.5459 10.0659) scale(3.40261 3.42404)">
<stop stop-color="#F36E21"/>
<stop offset="1" stop-color="#FAAA43"/>
</radialGradient>
<radialGradient id="paint23_radial_3:388" cx="0" cy="0" r="1" gradientUnits="userSpaceOnUse" gradientTransform="translate(28.6261 17.7426) scale(11.9479 12.0231)">
<stop offset="0.4485" stop-color="#FFF3E1"/>
<stop offset="1" stop-color="#FFE0B2"/>
</radialGradient>
<radialGradient id="paint24_radial_3:388" cx="0" cy="0" r="1" gradientUnits="userSpaceOnUse" gradientTransform="translate(30.5459 20.5426) scale(3.40261 3.42404)">
<stop stop-color="#F36E21"/>
<stop offset="1" stop-color="#FAAA43"/>
</radialGradient>
</defs>
</svg>
